<?xml version="1.0" encoding="utf-8"?>
<!-- Svg Vector Icons : http://www.onlinewebfonts.com/icon -->
<!DOCTYPE svg PUBLIC "-//W3C//DTD SVG 1.1//EN" "http://www.w3.org/Graphics/SVG/1.1/DTD/svg11.dtd">
<svg version="1.1" xmlns="http://www.w3.org/2000/svg" xmlns:xlink="http://www.w3.org/1999/xlink" x="0px" y="0px" viewBox="0 0 1000 1000" enable-background="new 0 0 1000 1000" xml:space="preserve">
<metadata> Svg Vector Icons : http://www.onlinewebfonts.com/icon </metadata>
<g><path d="M10,193.8v709.4c0,67.4,28,86.9,95.4,86.9h700.9V867.5H745v61.3H71.3v-674l61.3,0.2v-61.3H10z M928.8,745H255V71.3h183.8V10H271.2c-52.4,0-77.5,25.1-77.5,77.5v648.5c0,52.4,25.1,70.4,77.5,70.4h640.6c52.4,0,78.2-18,78.2-70.4V561.3h-61.3v114.2V745z M990,10v428.8h-61.3V120.3l-441,441l-49-49l441.1-441H561.3V10H990z"/></g>
</svg>