<?xml version="1.0" encoding="utf-8"?>
<!-- Generator: Adobe Illustrator 16.0.0, SVG Export Plug-In . SVG Version: 6.00 Build 0)  -->
<!DOCTYPE svg PUBLIC "-//W3C//DTD SVG 1.1//EN" "http://www.w3.org/Graphics/SVG/1.1/DTD/svg11.dtd">
<svg version="1.1" id="Layer_1" xmlns="http://www.w3.org/2000/svg" xmlns:xlink="http://www.w3.org/1999/xlink" x="0px" y="0px"
	 width="290.688px" height="66.523px" viewBox="0 0 290.688 66.523" enable-background="new 0 0 290.688 66.523"
	 xml:space="preserve">
<g>
	<path fill="#01AFD1" d="M1.561,33.87c-0.903-2.478-0.339-5.263,0.665-7.701c2.479-6.021,7.854-10.949,14.248-12.185
		c4.49-0.866,12.043-1.539,17.483,3.271c4.449,3.935,5.428,15.318,4.896,16.845c-1.503,4.332-3.065,9.854-7.193,11.851
		c-4.131,1.995-10.771,0.438-15.101-1.074c-1.104,3.909-2.208,7.817-3.312,11.729c-0.536,1.896-1.106,3.858-2.388,5.357
		c-1.82,2.134-4.878,2.958-7.646,2.52c-1.459-1.941-0.986-4.666-0.423-7.03c1.213-5.091,2.529-10.155,3.96-15.188
		c0.772-2.727,2.713-4.059,0.62-4.268C3.569,37.612,2.392,36.146,1.561,33.87"/>
	<path fill="#020202" d="M284.365,31.431c1.764-0.603,3.258-1.624,4.482-3.065c1.229-1.441,1.84-3.184,1.84-5.228
		s-0.709-3.614-2.129-4.712s-3.571-1.635-6.455-1.612c-2.883,0.021-5.42,0.894-7.613,2.612c-2.322,1.937-3.484,4.453-3.484,7.552
		c0,1.722,0.43,3.216,1.291,4.483c0.859,1.271,1.85,2.465,2.969,3.582c1.117,1.119,2.248,2.271,3.387,3.453
		c1.143,1.185,1.971,2.592,2.486,4.229c-3.443,0-5.959-0.882-7.551-2.646c-0.689-0.774-1.186-1.593-1.484-2.453
		c-0.816-2.365-1.379-3.797-1.678-4.291c-0.303-0.494-0.797-0.742-1.484-0.742c-1.162,0-2.25,0.84-3.26,2.517
		c-0.57,0.947-0.973,1.953-1.221,3.017c-0.699,0.617-1.451,1.228-2.297,1.826c-3.227,2.321-6.41,3.483-9.553,3.483h-0.771
		c3.01-1.119,5.582-3.271,7.713-6.454c2.129-3.186,3.193-6.41,3.193-9.682c0-1.461-0.193-2.795-0.582-4.002
		c-1.334-4.043-4.494-6.064-9.484-6.064c-3.486,0-6.35,1.27-8.584,3.809c-0.129-0.518-0.367-1.074-0.711-1.679
		c-1.205-2.323-2.463-3.483-3.775-3.483c-1.312,0-2.227,0.604-2.742,1.808c-2.621,6.183-4.656,12.19-6.109,18.032
		c-1.146,0.765-2.443,1.166-3.895,1.199h-0.387c0.99-2.324,1.484-4.527,1.484-6.617c0-2.086-0.52-3.795-1.549-5.129
		c-1.031-1.334-2.742-1.988-5.133-1.969c-2.387,0.021-4.346,0.883-5.871,2.582c-1.527,1.698-2.271,3.582-2.229,5.646
		c0,3.915,1.525,6.903,4.582,8.971c-1.377,0.861-3.109,1.29-5.195,1.29c-2.088,0-3.699-0.654-4.84-1.968
		c-1.141-1.312-1.711-2.938-1.711-4.873c0-3.699,1.195-6.767,3.582-9.195c2.389-2.432,5.357-3.657,8.906-3.68
		c3.551-0.021,5.324-0.376,5.324-1.063c0-0.904-1.271-1.871-3.809-2.904c-1.463-0.603-3.398-0.902-5.809-0.902
		c-5.291,0-9.574,1.852-12.844,5.551c-3.094,3.498-4.684,7.639-4.812,12.404c-1.342,1.191-2.92,1.816-4.738,1.857h-0.387
		c0.99-2.323,1.484-4.527,1.484-6.617c0-2.086-0.52-3.795-1.55-5.129c-1.032-1.334-2.741-1.988-5.132-1.969
		c-2.389,0.021-4.346,0.883-5.873,2.582c-1.525,1.698-2.27,3.582-2.227,5.646c0,3.915,1.527,6.903,4.582,8.971
		c-1.377,0.861-3.109,1.29-5.195,1.29c-2.088,0-3.701-0.654-4.84-1.968c-1.141-1.312-1.711-2.938-1.711-4.873
		c0-3.699,1.195-6.767,3.582-9.195c2.387-2.431,5.357-3.657,8.906-3.68c3.549-0.021,5.323-0.376,5.323-1.063
		c0-0.904-1.271-1.871-3.81-2.904c-1.463-0.603-3.396-0.902-5.807-0.902c-5.293,0-9.574,1.852-12.845,5.551
		c-3.271,3.7-4.884,8.11-4.841,13.229c0,0.034,0.004,0.067,0.002,0.104c-2.702,3.188-5.775,4.8-9.229,4.8
		c-1.377,0-2.58-0.56-3.613-1.679c-1.033-1.118-1.549-2.882-1.549-5.292v-2.582c2.021-2.622,4.086-5.055,6.195-7.292
		c2.105-2.235,4.031-4.378,5.773-6.421c1.744-2.044,3.174-4.021,4.293-5.938c1.117-1.914,1.679-3.816,1.679-5.711
		c0-1.894-0.526-3.345-1.581-4.354c-1.057-1.013-2.51-1.519-4.355-1.519c-4.174-0.043-7.961,1.83-11.359,5.615
		c-1.549,1.721-2.945,3.785-4.192,6.194c-2.452,4.731-4.109,9.896-4.971,15.487c-0.38,2.463-0.579,4.791-0.625,7.003
		c-0.628,0.731-1.384,1.62-2.277,2.679c-2.754,3.186-5.529,5.873-8.326,8.066c3.657-12.176,5.528-19.771,5.616-22.781
		c0-0.902-0.539-2.184-1.614-3.839c-1.076-1.656-2.216-2.507-3.42-2.55c-1.206,0.043-2.024,0.58-2.453,1.613
		c-0.258,0.604-0.871,2.45-1.839,5.549c-0.968,3.1-2.012,7.035-3.13,11.812c-0.604,1.723-1.334,3.163-2.195,4.323
		c-0.858,1.162-2.192,1.742-4.001,1.742c-1.807,0-2.71-0.773-2.71-2.322c-0.044-2.021,0.795-6.002,2.517-11.938
		c0.346-1.161,0.518-2.27,0.518-3.323c0-1.055-0.043-1.969-0.13-2.742c-0.257-2.582-1.354-3.873-3.29-3.873
		c-2.281,0-4.089,0.518-5.422,1.55l-1.847,15.084c-0.235,0.205-0.496,0.456-0.8,0.793c-4.303,4.476-7.013,6.711-8.132,6.711
		c-0.903,0-1.354-1.785-1.354-5.354c0-3.571,0.171-6.348,0.516-8.326c1.161-1.979,2.042-3.678,2.646-5.099
		c0-1.161-0.678-2.396-2.031-3.711c-1.355-1.312-2.786-1.969-4.292-1.969c-0.774,0-1.463,0.624-2.065,1.871
		c-1.248-0.688-2.862-1.032-4.84-1.032c-1.98,0-3.863,0.28-5.647,0.84c-1.784,0.562-3.711,1.721-5.774,3.484
		c-4.166,3.611-6.541,8.363-7.14,14.251c-2.738,3.308-5.863,4.979-9.383,4.979c-1.378,0-2.582-0.56-3.612-1.679
		C51,37.994,50.483,36.23,50.483,33.82v-2.582c2.022-2.622,4.087-5.055,6.196-7.292c2.107-2.235,4.033-4.378,5.776-6.421
		c1.741-2.044,3.172-4.021,4.291-5.938c1.118-1.914,1.679-3.816,1.679-5.711c0-1.894-0.528-3.345-1.582-4.354
		c-1.055-1.013-2.507-1.519-4.356-1.519c-4.174-0.043-7.96,1.83-11.357,5.615c-1.549,1.721-2.947,3.785-4.194,6.194
		c-2.453,4.731-4.107,9.896-4.97,15.487c-0.431,2.799-0.646,5.434-0.646,7.906c0,2.476,0.389,4.527,1.161,6.162
		c2.237,4.646,6.434,6.947,12.585,6.905c1.766,0,3.485-0.407,5.163-1.228c1.68-0.815,3.163-1.859,4.453-3.129
		c0.339-0.334,0.659-0.678,0.964-1.028c0.451,1.041,1.091,2,1.94,2.866c1.849,1.896,4.291,2.842,7.324,2.842
		c3.032,0,5.452-0.592,7.261-1.774c1.807-1.184,3.269-2.698,4.388-4.551c0.774,4.002,2.301,6.002,4.582,6.002
		c1.678,0,3.399-0.407,5.163-1.228c1.764-0.815,3.366-1.859,4.808-3.129c0.395-0.346,0.763-0.703,1.114-1.066
		c0.409,1.322,1.155,2.367,2.241,3.132c1.743,1.228,4.076,1.841,7.003,1.841c3.614,0,6.496-1.484,8.648-4.453
		c-0.218,1.117-0.625,2.969-1.228,5.551c-2.453,0.603-4.755,1.105-6.906,1.517c-2.15,0.408-4.032,0.881-5.646,1.42
		c-1.613,0.537-2.883,1.216-3.81,2.032c-0.925,0.816-1.387,1.915-1.387,3.292c0,2.45,1,4.493,3,6.131
		c2.001,1.636,4.421,2.453,7.261,2.453c4.218,0,7.357-1.249,9.424-3.744c0.944-1.161,1.721-2.517,2.322-4.063
		c0.604-1.549,1.161-3.187,1.68-4.906c4.388-2.021,8.099-4.84,11.132-8.453c1.173-1.396,2.113-2.727,2.833-3.988
		c0.096,0.257,0.184,0.521,0.297,0.762c2.236,4.646,6.43,6.947,12.584,6.905c1.764,0,3.484-0.407,5.162-1.228
		c1.678-0.815,3.164-1.859,4.453-3.129c0.588-0.578,1.116-1.187,1.602-1.816c0.539,1.023,1.229,1.979,2.076,2.85
		c2.367,2.432,5.926,3.646,10.682,3.646c4.754,0,8.83-2.001,12.23-6.003c1.289,0.259,2.871,0.388,4.742,0.388
		c1.775,0,3.406-0.6,4.895-1.781c0.578,1.375,1.402,2.629,2.496,3.75c2.365,2.432,5.926,3.646,10.68,3.646s8.83-2.001,12.23-6.003
		c1.291,0.259,2.871,0.388,4.742,0.388c0.545,0,1.073-0.062,1.592-0.173c-1.248,6.944-1.881,12.416-1.881,16.372
		c0,1.117,0.129,2.031,0.387,2.74c0.258,0.711,1.162,1.732,2.711,3.066c0.558,0.517,1.27,0.774,2.129,0.774
		c0.475,0,0.924-0.194,1.355-0.582c0.43-0.388,0.752-0.807,0.967-1.259c0.215-0.451,0.764-3.7,1.646-9.744
		c0.883-6.046,1.666-11.047,2.355-15.006c0.387-2.193,0.904-4.012,1.549-5.452c0.646-1.44,1.365-2.904,2.162-4.39
		c0.795-1.483,1.861-2.722,3.195-3.711c1.334-0.988,2.568-1.483,3.711-1.483c1.139,0,2.053,0.378,2.744,1.13
		c0.686,0.753,1.027,1.604,1.027,2.549c0,3.872-0.881,7.1-2.645,9.682c-1.768,2.582-4.35,3.871-7.744,3.871
		c-0.387,0.774-0.582,1.637-0.582,2.582c0,1.723,0.84,3.012,2.518,3.873c0.775,0.387,1.895,0.709,3.355,0.967
		c1.463,0.26,3.938,0.193,7.422-0.191c3.812-0.477,7.076-1.885,9.812-4.189c0.461,0.614,1.033,1.206,1.738,1.771
		c2.023,1.611,5.068,2.42,9.135,2.42c4.065,0,7.236-0.785,9.52-2.355c2.279-1.57,3.42-3.796,3.42-6.68
		c0-1.463-0.506-2.859-1.516-4.193C286.741,34.034,285.612,32.722,284.365,31.431 M152.032,10.972
		c1.826-3.099,3.494-4.646,5.002-4.646c0.688,0,1.031,0.483,1.031,1.452c0,0.968-0.258,1.903-0.771,2.808
		c-0.52,0.903-1.229,1.916-2.131,3.033c-0.902,1.118-1.971,2.432-3.193,3.938c-1.227,1.507-2.572,3.379-4.035,5.615
		C148.839,18.137,150.204,14.069,152.032,10.972 M55.424,10.972c1.828-3.099,3.495-4.646,5.002-4.646
		c0.688,0,1.032,0.483,1.032,1.452c0,0.968-0.258,1.903-0.774,2.808c-0.516,0.904-1.226,1.916-2.13,3.033
		c-0.903,1.118-1.968,2.432-3.194,3.938c-1.226,1.507-2.57,3.379-4.032,5.615C52.229,18.137,53.595,14.069,55.424,10.972
		 M86.046,34.012c-0.387,1.378-0.883,2.539-1.485,3.484c-1.721,2.754-3.894,4.151-6.517,4.193c-2.453,0-3.679-1.654-3.679-4.969
		c0-4.045,1.291-7.399,3.87-10.068c2.582-2.667,5.615-4.345,9.101-5.031C86.475,25.063,86.046,29.193,86.046,34.012 M111.343,60.794
		c-0.903,0.043-1.839-0.215-2.807-0.772c-0.97-0.562-1.452-1.248-1.452-2.063c-0.043-0.646,0.796-1.099,2.517-1.355
		c0.86-0.129,1.895-0.27,3.1-0.419c1.202-0.151,2.579-0.377,4.13-0.679C115.194,59.029,113.365,60.794,111.343,60.794
		 M187.302,35.108c-1.119-1.116-1.678-2.538-1.678-4.259c0-0.518,0.129-1.055,0.387-1.613c0.26-0.56,0.582-0.839,0.969-0.839
		c0.945,0,1.42,0.731,1.42,2.192C188.399,32.055,188.032,33.56,187.302,35.108 M222.345,35.108
		c-1.119-1.116-1.678-2.538-1.678-4.259c0-0.518,0.129-1.055,0.389-1.613c0.256-0.56,0.58-0.839,0.967-0.839
		c0.945,0,1.42,0.731,1.42,2.192C223.442,32.055,223.075,33.56,222.345,35.108 M278.813,22.977c0.389-0.086,0.895-0.215,1.518-0.389
		c0.625-0.172,1.279-0.258,1.971-0.258c0.688,0,1.215,0.205,1.58,0.611c0.365,0.41,0.549,0.871,0.549,1.389
		c0,1.119-0.861,2.604-2.582,4.453C279.823,26.548,278.813,24.611,278.813,22.977"/>
	<path fill="#020202" d="M30.759,42.746c-1.103,0.845-3.311,1.208-5.501,1.109c-1.101-0.042-2.262-0.167-3.34-0.375
		c-0.59-0.118-1.114-0.226-1.63-0.378l-0.395-0.119l-0.194-0.062l-0.418-0.149c-0.539-0.2-1.062-0.439-1.608-0.688
		c-0.878-0.399-2.498-1.106-2.681-1.188L14.01,43.44l-0.462,1.358l-0.379,1.308l-0.179,0.622l-0.102,0.409l-0.199,0.814
		c-0.246,1.084-0.478,2.16-0.673,3.229c-0.4,2.142-0.718,4.239-0.978,6.319c-0.193,1.771-0.777,3.082-1.753,3.836
		c-0.482,0.383-1.082,0.645-1.757,0.778c-0.338,0.062-0.686,0.107-1.036,0.11c-0.325,0.019-0.764-0.021-0.949-0.046L5.251,62.14l0,0
		c-0.289-0.056-0.371-0.068-0.433-0.105c-0.068-0.083-0.213-0.368-0.287-0.763c-0.118-0.852-0.026-1.923,0.172-2.911
		c0.102-0.521,0.205-0.938,0.366-1.487l0.104-0.419l0.096-0.354c0.07-0.243,0.14-0.482,0.206-0.721
		c0.293-0.967,0.569-1.877,0.826-2.725c1.066-3.413,1.822-5.836,2.178-6.974c0.479-1.617,0.982-3.312,1.479-4.988
		c0.467-1.78,0.732-3.502,0.941-5.112c0.205-1.608,0.334-3.098,0.406-4.367c0.034-0.635,0.055-1.215,0.061-1.729
		c0-0.129,0.001-0.253,0.001-0.373c-0.009-0.146-0.012-0.272-0.044-0.403c-0.057-0.252-0.173-0.472-0.313-0.619
		c-0.293-0.297-0.598-0.354-0.785-0.355c-0.2,0-0.274,0.069-0.284,0.145c-0.006,0.076,0.056,0.164,0.173,0.306
		c0.116,0.143,0.228,0.332,0.187,0.513l-0.04,0.172l-0.036,0.109l-0.06,0.217c-0.08,0.299-0.168,0.631-0.267,0.996
		c-0.186,0.732-0.404,1.604-0.664,2.624c-0.255,1.021-0.549,2.188-0.905,3.496c-0.364,1.309-0.77,2.768-1.387,4.235
		c-1.329,3.388-2.729,7.047-4.188,11.062c-0.362,1.005-0.729,2.021-1.086,3.095c-0.168,0.531-0.337,1.068-0.507,1.608
		c-0.182,0.601-0.345,1.195-0.467,1.827c-0.237,1.26-0.439,2.586-0.124,4.269c0.056,0.398,0.254,0.885,0.43,1.326
		c0.273,0.467,0.514,0.954,0.987,1.354c0.432,0.441,0.942,0.724,1.487,0.948c0.533,0.223,1.018,0.258,1.537,0.346l-0.354-0.047
		c0.45,0.09,0.708,0.118,1.045,0.149c0.315,0.03,0.634,0.04,0.949,0.041c0.637-0.001,1.28-0.06,1.934-0.188
		c1.298-0.252,2.645-0.821,3.765-1.747c1.148-0.911,1.92-2.158,2.444-3.373l0.354-0.926c0.095-0.312,0.163-0.631,0.241-0.946
		c0.066-0.311,0.168-0.65,0.197-0.938l0.113-0.729c0.312-1.959,0.681-3.929,1.104-5.859c0.211-0.967,0.443-1.921,0.689-2.86
		c0.323-1.211,0.346-1.213,0.368-1.248l0.05-0.06l0.082,0.055l0.044,0.026l0.021,0.011l0.259,0.091l0.524,0.17
		c0.352,0.108,0.709,0.209,1.071,0.302l1.017,0.232c1.409,0.296,2.77,0.47,4.173,0.552c1.4,0.07,2.828,0.033,4.303-0.218
		c1.462-0.257,3.017-0.732,4.46-1.741l-0.64,0.341c0.112-0.043,0.294-0.123,0.341-0.15l0.196-0.102
		c0.136-0.072,0.255-0.144,0.347-0.205c0.198-0.132,0.415-0.271,0.571-0.405c0.353-0.271,0.651-0.554,0.92-0.841
		c0.545-0.576,0.987-1.174,1.353-1.773c0.4-0.602,0.647-1.206,0.944-1.809c0.222-0.599,0.492-1.201,0.648-1.788
		c0.727-2.366,0.984-4.614,1.076-6.727c0.188-4.229-0.262-7.941-0.714-11.17l0.023,0.229c-0.021-0.254-0.041-0.343-0.058-0.453
		c-0.02-0.111-0.037-0.216-0.06-0.3c-0.689-2.927-2.482-4.865-4.357-6.273c-1.911-1.354-3.937-2.168-5.871-2.676
		c-0.963-0.24-1.945-0.459-2.854-0.589c-0.452-0.061-0.902-0.119-1.352-0.179l-0.652-0.085l-0.72-0.073
		c-1.861-0.164-3.634-0.146-5.385,0.009c-1.744,0.162-3.452,0.462-5.089,1.008c-1.629,0.537-3.21,1.241-4.581,2.271
		c-0.715,0.455-1.311,1.084-1.915,1.648c-0.538,0.598-1.059,1.284-1.472,1.852c-0.811,1.196-1.451,2.334-2.042,3.481
		c-1.138,2.303-1.983,4.551-2.338,6.797c-0.368,2.227-0.219,4.463,0.517,6.302c0.21,0.452,0.391,0.854,0.673,1.385
		c0.334,0.506,0.771,0.925,1.207,1.244c0.812,0.582,1.617,0.921,2.338,1.022c4.583,0.651,4.378-0.901,3.848-0.901
		c-0.533-0.027-1.342,0.017-2.482-0.209c-0.979-0.209-1.439-0.599-1.664-0.934c-0.225-0.339-0.609-1.76-0.604-2.268
		c-0.019-0.601-0.055-1.313,0.007-2.706c0.057-1.093,0.283-2.248,0.674-3.423c0.41-1.175,0.947-2.358,1.592-3.531
		c0.64-1.165,1.396-2.343,2.203-3.415c0.825-1,1.562-1.82,2.662-2.408c2.083-1.25,4.832-1.792,7.643-1.875
		c1.396-0.04,2.875,0.036,4.205,0.221l2.213,0.334c0.668,0.173,1.373,0.278,2.009,0.49c0.894,0.265,2.145,0.676,3.396,1.45
		c0.637,0.376,1.214,0.88,1.724,1.459c0.244,0.293,0.479,0.609,0.638,0.946c0.101,0.165,0.155,0.339,0.221,0.5l0.069,0.229
		l0.023,0.09c0,0,0.012,0.084,0-0.058l0.025,0.228c0.429,2.953,0.865,6.423,0.744,10.074c-0.052,1.818-0.26,3.691-0.767,5.401
		c-0.111,0.438-0.29,0.822-0.425,1.244c-0.189,0.36-0.336,0.787-0.558,1.099c-0.193,0.348-0.421,0.646-0.642,0.894
		c-0.111,0.131-0.471,0.434-0.471,0.434"/>
</g>
</svg>
