<?xml version="1.0" encoding="utf-8"?>
<!-- Generator: Adobe Illustrator 16.0.0, SVG Export Plug-In . SVG Version: 6.00 Build 0)  -->
<!DOCTYPE svg PUBLIC "-//W3C//DTD SVG 1.1//EN" "http://www.w3.org/Graphics/SVG/1.1/DTD/svg11.dtd">
<svg version="1.1" id="Layer_1" xmlns="http://www.w3.org/2000/svg" xmlns:xlink="http://www.w3.org/1999/xlink" x="0px" y="0px"
	 width="246px" height="246px" viewBox="783 277 246 246" enable-background="new 783 277 246 246" xml:space="preserve">
<g>
	<path fill="#FFFFFF" d="M906,277c-68.202,0-123,54.798-123,123s54.798,123,123,123s123-54.798,123-123S974.202,277,906,277z
		 M906,515.168c-63.734,0-115.168-51.434-115.168-115.168c0-63.734,51.434-115.168,115.168-115.168S1021.168,336.266,1021.168,400
		C1021.168,463.734,969.734,515.168,906,515.168z"/>
</g>
<g>
	<g>
		<path fill="#FFFFFF" d="M873.856,360.659c19.252-17.415,48.062-17.681,67.581-1.785l-15.471,0.587
			c-1.997,0.079-3.542,1.73-3.462,3.728c0.08,1.943,1.677,3.461,3.595,3.461c0.054,0,0.08,0,0.133,0l23.752-0.878
			c1.944-0.08,3.462-1.651,3.462-3.595v-0.267c0-0.053,0-0.08,0-0.133v-0.026l0,0l-0.879-23.486
			c-0.079-1.997-1.757-3.542-3.728-3.462c-1.998,0.081-3.541,1.731-3.462,3.728l0.56,14.726
			c-9.666-7.909-21.568-12.488-34.297-13.127c-15.764-0.799-30.915,4.606-42.604,15.204c-16.082,14.565-22.899,36.72-17.787,57.809
			c0.4,1.651,1.864,2.743,3.488,2.743c0.293,0,0.56-0.026,0.854-0.106c1.917-0.48,3.115-2.424,2.635-4.341
			C853.752,392.905,859.718,373.44,873.856,360.659z"/>
		<path fill="#FFFFFF" d="M967.133,386.86c-0.479-1.917-2.423-3.115-4.341-2.636c-1.917,0.479-3.115,2.423-2.635,4.34
			c4.499,18.533-1.492,37.998-15.631,50.779c-9.932,8.974-22.395,13.394-34.803,13.394c-11.849,0-23.672-4.021-33.204-11.955
			l15.656-1.412c1.971-0.187,3.435-1.917,3.249-3.914s-1.917-3.435-3.914-3.249l-23.672,2.131c-1.971,0.186-3.435,1.917-3.248,3.914
			l2.129,23.672c0.16,1.863,1.731,3.275,3.569,3.275c0.105,0,0.212,0,0.319-0.027c1.97-0.186,3.434-1.917,3.248-3.913l-1.278-14.406
			c9.666,7.828,21.516,12.382,34.163,13.021c1.013,0.053,2.024,0.079,3.01,0.079c14.671,0,28.624-5.379,39.596-15.284
			C965.429,430.104,972.246,407.977,967.133,386.86z"/>
	</g>
</g>
</svg>
