<?xml version="1.0" encoding="utf-8"?>
<!-- Generator: Adobe Illustrator 16.0.0, SVG Export Plug-In . SVG Version: 6.00 Build 0)  -->
<!DOCTYPE svg PUBLIC "-//W3C//DTD SVG 1.1//EN" "http://www.w3.org/Graphics/SVG/1.1/DTD/svg11.dtd">
<svg version="1.1" id="Layer_1" xmlns="http://www.w3.org/2000/svg" xmlns:xlink="http://www.w3.org/1999/xlink" x="0px" y="0px"
	 width="246px" height="246px" viewBox="517 277 246 246" enable-background="new 517 277 246 246" xml:space="preserve">
<g>
	<path fill="#FFFFFF" d="M688.07,364.229l-62.604,63.734L590.8,393.298c-3.363-3.364-7.832-3.364-11.17,0
		c-3.364,3.364-3.364,7.832,0,11.171l40.264,40.263c1.129,1.13,3.364,2.234,5.598,2.234l0,0c2.234,0,4.468-1.13,5.598-2.234
		l68.177-69.332c3.364-3.364,2.234-7.832,0-11.17C695.902,360.866,691.434,360.866,688.07,364.229z M640,277
		c-68.202,0-123,54.798-123,123s54.798,123,123,123s123-54.798,123-123S708.202,277,640,277z M640,515.168
		c-63.734,0-115.168-51.434-115.168-115.168c0-63.734,51.434-115.168,115.168-115.168S755.168,336.266,755.168,400
		C755.168,463.734,703.734,515.168,640,515.168z"/>
</g>
<g>
	<path fill="#FFFFFF" d="M688.07,364.229l-62.604,63.734L590.8,393.298c-3.363-3.364-7.832-3.364-11.17,0
		c-3.364,3.364-3.364,7.832,0,11.171l40.264,40.263c1.129,1.13,3.364,2.234,5.598,2.234l0,0c2.234,0,4.468-1.13,5.598-2.234
		l68.177-69.332c3.364-3.364,2.234-7.832,0-11.17C695.902,360.866,691.434,360.866,688.07,364.229z M640,277
		c-68.202,0-123,54.798-123,123s54.798,123,123,123s123-54.798,123-123S708.202,277,640,277z M640,515.168
		c-63.734,0-115.168-51.434-115.168-115.168c0-63.734,51.434-115.168,115.168-115.168S755.168,336.266,755.168,400
		C755.168,463.734,703.734,515.168,640,515.168z"/>
</g>
</svg>
