<svg id="Layer_1" data-name="Layer 1" xmlns="http://www.w3.org/2000/svg" viewBox="0 0 124.2 132.2"><title>Artboard 1</title><g id="Layer_2" data-name="Layer 2"><path d="M65.2,113.9a17.2,17.2,0,0,1-3.2-.2c-.3,0-.4,0-.3.3a1.55,1.55,0,0,1-.4,2c-1.1,1-1.4,2.3-1.9,3.6a32.18,32.18,0,0,1-2.3,5c-.8,1.6-1.5,3.3-2.3,4.9-.5.9-.9,1.8-1.4,2.7-.1.3-.3.4-.7.4H23c-.5,0-.5,0-.4-.5.3-1.2.6-2.3,1-3.5.1-.3.1-.5-.2-.6s-.2-.3-.3-.5c-.6-.8-1.1-1.6-1.7-2.4a28.47,28.47,0,0,1-2.8-5.5,47.1,47.1,0,0,1-1.6-6.2,1.42,1.42,0,0,0-.2-.6,15.66,15.66,0,0,1-2.1-5c-.4-1.3-.9-2.6-1.4-3.9,0-.1-.1-.1-.1-.2a3.11,3.11,0,0,1-1.1-2.1c-.4-1.2-.6-2.5-1.1-3.7-.2-.4-.2-.9-.6-1.1-.1,0-.1-.2-.1-.3a21.91,21.91,0,0,1-.5-7.2l.3-3.3c0-.3-.1-.6-.1-.9a26.14,26.14,0,0,1-.6-2.7,5,5,0,0,1,.1-2.1c.4-1.3.9-2.7,1.3-4,.1-.2.1-.5.2-.7a8.51,8.51,0,0,1,.6-1.7,18.73,18.73,0,0,0,.9-4.6A44.54,44.54,0,0,1,15.3,58c.5-1.4.8-2.8,1.4-4.1.1-.2.2-.5.3-.7a14.58,14.58,0,0,0,.7-3,15.68,15.68,0,0,1,1.6-4.9,43.6,43.6,0,0,1,2.3-4.2,5.66,5.66,0,0,1,2.9-2.6A38.85,38.85,0,0,1,32,36c1.1-.2,2.2-.2,3.3-.4a3.94,3.94,0,0,0,1.4-.5,56.19,56.19,0,0,1,8.9-4.3c.5-.2.6-.2.3-.7a2.92,2.92,0,0,1-.2-.9,8,8,0,0,1,.2-3.1c.2-.5.4-1.1,1.1-1a.1.1,0,0,0,.1-.1,3.4,3.4,0,0,0-.1-1c0-.1-.1,0-.2,0s-.3.2-.5.3-.3.2-.4,0,0-.2,0-.4a20.85,20.85,0,0,0,.7-3.6c-.2.2-.3.4-.5.6s-.1.2-.3.1-.1-.1-.1-.2a2.72,2.72,0,0,1,0-.9c.6-1.8.9-3.8,2-5.5a10,10,0,0,1,2.8-3,1.78,1.78,0,0,0,.7-.8A6.16,6.16,0,0,1,56,8c.4,0,.9-.1,1.3-.1.2,0,.3-.1.5-.2a10.46,10.46,0,0,1,2.3-1.3,4.16,4.16,0,0,1,2.9.2c1.5.5,3.1,1.1,4.6,1.7a46.1,46.1,0,0,1,5.1,2.2A10.18,10.18,0,0,1,76,13.4a2.09,2.09,0,0,1,.4.6.3.3,0,0,1,0,.4c-.1.1-.3,0-.4,0a8.79,8.79,0,0,0-1-.6,1.88,1.88,0,0,0,.4.9,4.42,4.42,0,0,1,.5,1.5,26.35,26.35,0,0,0,1.8,5.4c.1.1.2.2,0,.4s-.2.1-.4,0a3.51,3.51,0,0,1-.8-.5c0,.6.1,1.2.1,1.7a5.46,5.46,0,0,1-.1,1.8c0,.1-.1.2.1.2.8.2.9.9,1,1.5v2a2.15,2.15,0,0,1-.2,1.1c-.1.3-.1.4.2.5a49.77,49.77,0,0,1,6.6,3.1l2.1,1.2a3.58,3.58,0,0,0,1.1.4,30,30,0,0,1,5.1.8,37.74,37.74,0,0,1,6.6,2.6,5.46,5.46,0,0,1,1.9,1.8,30.4,30.4,0,0,1,3.7,7.7,11.08,11.08,0,0,1,.5,2.5,6.65,6.65,0,0,0,.7,2.4l2.7,7.8a37.31,37.31,0,0,1,1.8,7.5,4.19,4.19,0,0,1,.1,1.6,8.08,8.08,0,0,0,.5,3.1c.7,2.4,1.5,4.9,2.3,7.3a2.15,2.15,0,0,1,0,.8,12.41,12.41,0,0,1-.3,2.7,9.42,9.42,0,0,0-.1,4.1,22.68,22.68,0,0,1-.4,8.2c-.1.4-.5.6-.6,1-1.3,3.3-2.6,6.6-3.7,9.9-.4,1.1-.7,2.2-1.1,3.4a6.78,6.78,0,0,1-1.2,2.2,1.79,1.79,0,0,0-.4,1.4,20.77,20.77,0,0,1-1.9,7,1.62,1.62,0,0,0,.1,1.5c.8,2,2.1,3.9,2.5,6a12.3,12.3,0,0,0,1.7,4.1.52.52,0,0,1,.2.4c-.1.2-.3.1-.4.1H77c-.5,0-.8-.1-1-.5-1.2-1.7-2.3-3.4-3.6-5a35,35,0,0,1-4.1-7.3,26.61,26.61,0,0,1-1.6-3.9.78.78,0,0,0-.4-.4,2,2,0,0,1-.7-.6C65.1,114.7,64.9,114.3,65.2,113.9Zm-35-8.2c.8-1.9,1.7-3.6,2.3-5.4a3.51,3.51,0,0,1,.5-.8,1.56,1.56,0,0,0,.6-1.2,3.48,3.48,0,0,1,1.1-2.7.73.73,0,0,0,.2-.6c0-.9.1-1.8.1-2.6a1.59,1.59,0,0,1,.4-1.2c1-1.2.9-2.6.8-4a24.52,24.52,0,0,1-.2-2.7c.2-2.1.6-4.2.6-6.4a7,7,0,0,0-.2-2.9c-.5-1.3-1.1-2.7-1.5-4.1-.2-.5-.4-.9-.6-1.5-.2.5-.4,1-.6,1.4a21,21,0,0,1-3.2,5.9,30.7,30.7,0,0,1-2.6,2.5.37.37,0,0,0-.2.5,27,27,0,0,1,.8,3.9c.3,2,.7,4,.9,6.1a17.88,17.88,0,0,1-.2,6.1,10.75,10.75,0,0,0-.5,4c.1.8.1,1.7.2,2.5A17.88,17.88,0,0,0,30.2,105.7ZM88.7,69.2a.52.52,0,0,0-.2.4A33.2,33.2,0,0,1,86,75a1.27,1.27,0,0,0-.1.6,15.26,15.26,0,0,0,.3,3,37.72,37.72,0,0,1,.7,9.5v.3a4.44,4.44,0,0,1,.1,2c-.1.3.1.6.2.9.2.6.7.9,1,1.4a8.73,8.73,0,0,1,.5,2.2,1.29,1.29,0,0,0,.9,1.2c.5.2.6.5.7,1a3.2,3.2,0,0,0,.5,1.9,29.55,29.55,0,0,1,2.3,3.8c.1.2.1.4.3.3s.2-.2.3-.4a13.43,13.43,0,0,0,.7-2.7,5.74,5.74,0,0,0-.2-2.9,18.94,18.94,0,0,1-.6-8.2c.3-2.1.6-4.3,1-6.4a19.72,19.72,0,0,1,.7-3.5c.1-.2,0-.3-.2-.4a17.38,17.38,0,0,1-5.4-7.2A14.72,14.72,0,0,1,88.7,69.2ZM54.8,29.8a10.55,10.55,0,0,0,2.4-.6,1.38,1.38,0,0,0,.4-.3.19.19,0,0,0,0-.3c-.4-.3-.7-.7-1.3-.7a16.2,16.2,0,0,0-2.2.1,5.34,5.34,0,0,0-1.8.5c-.3.2-.4.5,0,.6A10.27,10.27,0,0,0,54.8,29.8Zm12.3-1.9a1.94,1.94,0,0,0-1.5.5c-.3.3-.4.5,0,.7a5.11,5.11,0,0,0,5,.1c.2-.1.4-.2.4-.4a.32.32,0,0,0-.3-.3,6.89,6.89,0,0,0-.8-.3A11.43,11.43,0,0,0,67.1,27.9Z"/></g></svg>