<svg id="Layer_1" data-name="Layer 1" xmlns="http://www.w3.org/2000/svg" viewBox="0 0 124.2 132.2"><defs><style>.cls-1{fill:#fff;}</style></defs><title>Artboard 1</title><g id="Layer_1-2" data-name="Layer 1"><path d="M57.6,53.9a9,9,0,0,0,1.6.3,2.35,2.35,0,0,0,.8.2c.4,0,.8.1,1.2.1a.76.76,0,0,0,.4-.2v-.2a.6.6,0,0,0-.4-.1,10.88,10.88,0,0,1-1.8-.1,8,8,0,0,1-4.5-2.4.62.62,0,0,1-.11-.57,4.79,4.79,0,0,0-.19.57.22.22,0,0,1-.2.2c-.26.13-.53.29-.79.44l.69-.34C55.1,53.1,56.4,53.4,57.6,53.9Z"/><path d="M44.1,65.8c.2-.8.2-1.6.4-2.4.1-.5.2-1,.3-1.4a13.31,13.31,0,0,0,.5-1.9,9.2,9.2,0,0,1,1.8-4.3,3.59,3.59,0,0,1,1-.7l4.5-2.4c.34-.17.67-.36,1-.56a22,22,0,0,0-2,1.06c-1.3.7-2.6,1.3-3.9,2a2.25,2.25,0,0,0-1.5,1.5,19.75,19.75,0,0,0-.8,2.6,9.11,9.11,0,0,1-.9,3.1c0,.1-.1.2-.1.3a10.88,10.88,0,0,1-.6,3.6c-1,3.82-1.9,7.7-2.79,11.54.16-.58.33-1.16.49-1.74C42.3,72.6,43.2,69.2,44.1,65.8Z"/><path d="M65,49.2a5.79,5.79,0,0,0,2.57-2l-.47.5a1.78,1.78,0,0,1-.8.7c-.8.4-1.6.7-2.5,1.1a7.91,7.91,0,0,1-4.25.31l.75.19A8.55,8.55,0,0,0,65,49.2Z"/><path d="M55.6,101.9a2.61,2.61,0,0,1,.56-1.69l-.16.19a4.61,4.61,0,0,1-.69.65c0,.47.09,1,.09,1.65,0,3.3-.1,6.7-.1,10a1.08,1.08,0,0,0,.3.7l.25.2a1.32,1.32,0,0,1-.25-.8C55.6,109.1,55.7,105.5,55.6,101.9Z"/><path d="M46.48,113.25l0,0a2.11,2.11,0,0,0,2.9.7,4.85,4.85,0,0,0,.44-.39,4.46,4.46,0,0,1-1.44.59A2.07,2.07,0,0,1,46.48,113.25Z"/><path d="M82.5,125c-.9-4.3-1.9-8.7-2.7-13.1-1.1-5.6-1.2-11.3-1.8-17a31.49,31.49,0,0,0-.5-4.3,2.39,2.39,0,0,1,.3-1.7,1.85,1.85,0,0,0,.5-1.2V83.2a16.21,16.21,0,0,1,.1-2.2c.1-1.2.5-2.3.6-3.4.2-3,.4-5.9.5-8.9s-.1-5.9-.2-8.8a6.53,6.53,0,0,0-1-3.6,3.84,3.84,0,0,0-1.1-1.1c-2.1-1.1-4.3-2.1-6.4-3.2a2.94,2.94,0,0,1-1.2-1,5.78,5.78,0,0,1-.5-1.4,2,2,0,0,1-.1-1.3c.2-.9.6-1.8.1-2.7-.1-.1,0-.3.1-.4a10.93,10.93,0,0,0,.8-1.5c1.3-2.7,2.4-5.4,2.1-8.5V33.5c.5.1.9.2,1.3.3,2.1.5,5.1-.4,6.1-2.6.1-.1.2-.3.3-.4a6.06,6.06,0,0,0,1.1-2.9,20.43,20.43,0,0,0-.9-6.5,2.54,2.54,0,0,1-.2-1.2c-.1-1,0-2-.2-3a33.09,33.09,0,0,0-1.4-4.1l-1.2-3a6.07,6.07,0,0,0-.7-1A16.19,16.19,0,0,0,71.7,6a4.77,4.77,0,0,0-5.2,1,9.42,9.42,0,0,0-1,1,27.42,27.42,0,0,0-4.6-2.9,18.64,18.64,0,0,0-5.1-1.5,6.15,6.15,0,0,0-2.7,0,3.65,3.65,0,0,0-3,2.2.59.59,0,0,1-.9.3,4.42,4.42,0,0,0-1.5-.5A5.42,5.42,0,0,0,44,7.2c-2.8,2.6-4.3,6-5.8,9.4-.2.4-.3.6-.7.5a4.48,4.48,0,0,0-2.8.1h-.1c-1,.4-2.2.7-2.7,1.9a52.09,52.09,0,0,0-2,5,7.08,7.08,0,0,0-.4,3.2A16.84,16.84,0,0,0,31,32.6c.5,1.1,1.1,2.3,1.6,3.4.8,1.6,1.9,3,2.6,4.7a6.17,6.17,0,0,0,4.5,3.5l3,.6a3.29,3.29,0,0,0,1.4,0,4.38,4.38,0,0,0,3.2-2.7c.1-.3.2-.6.3-1a4.24,4.24,0,0,0,.5.7,35,35,0,0,0,2.4,3c1.3,1.2,2.7,2.3,4.1,3.4a1.79,1.79,0,0,1,.5.7A2.39,2.39,0,0,1,55,50.48a4.4,4.4,0,0,0,.33-.78,3.09,3.09,0,0,0,.1-.9c1.4.3,2.7.7,4.1,1h0A12.94,12.94,0,0,1,55.7,48.3a33.92,33.92,0,0,1-3.9-2.7c-1.2-.9-1.8-2.2-2.7-3.3A8.71,8.71,0,0,1,48,40.5l-1.2-2.7c-.8-2.1-1.5-4.1-2.3-6.2a.45.45,0,0,1,0-.5,2.65,2.65,0,0,1,.5-.6,8.79,8.79,0,0,1,3.4-1.9,4.33,4.33,0,0,1,.5-.1c-.5.5-1,.9-1.5,1.4a10.63,10.63,0,0,0-1.5,1.5c-.7.8-.4,1.5.4,2,2,1.3,3.8.7,5.6-.3.6-.4,1-1.1,1.8-1.2-.9-.5-1.2.6-1.9.6,0-.7.1-1.4.1-2.1a6.72,6.72,0,0,1,1.2.6c.4.2.5.8,1.1.7-.1-1.3-1.2-1.8-2-2.8a8.6,8.6,0,0,0,1.6-.1l.1-.1a8.71,8.71,0,0,0-1.1-.9,3.91,3.91,0,0,0-3-.1c-.9.4-1.9.6-2.8,1-.7.4-1.4,1-2.2,1.5a2.72,2.72,0,0,1,0-.9A18.31,18.31,0,0,1,48,22.2c.6-.8,1-1.7,1.6-2.5s1.3-1.5,1.9-2.2c.2-.3.7-.2.8-.7l.6.3c.3-.6.6-.8,1.2-.4a.6.6,0,0,0,.4-.1c.2-.3.4-.4.9-.3.3.1.8-.2,1.2-.3s1-.3,1.5-.4c.1-.1.3,0,.4.1,1.8,1,3.7,1.9,5.5,2.9.9.5,1.8,1.2,2.7,1.7a10.35,10.35,0,0,1,2.7,2.4,7.75,7.75,0,0,1,1.8,4.6c.1,1.3.2,2.5.2,3.8,0,1.8.2,3.5.3,5.3a13.37,13.37,0,0,1-1,5.2,22.86,22.86,0,0,1-2.9,5.3c-.07.11-.15.2-.23.3.41-.45.79-.92,1.23-1.5-.1.8.1,1.4-.4,1.7a.76.76,0,0,1,.1.4,13.32,13.32,0,0,1-.5,1.9c-.1.2-.1.5-.2.7.1,0,.1.1.2.1.2-.3.4-.7.6-1a1.81,1.81,0,0,1,.1,2.3l-.3.3c-1.2.5-2.3,1.2-3.4,1.7a7.59,7.59,0,0,1-1.8.6,5.64,5.64,0,0,0,1.3,0c1-.4,1.9-.9,2.9-1.3.2-.2.5-.2.8-.3a2.09,2.09,0,0,0,.6-.4,3.11,3.11,0,0,0,.7-.9,17.55,17.55,0,0,0,4.2,2.4c1,.5,2.1,1.1,3.2,1.7a3.11,3.11,0,0,1,.7.9,11.25,11.25,0,0,1,1.2,5.1c0,2.7.1,5.3,0,8s-.3,5.5-.4,8.2a5.26,5.26,0,0,1-.4,1.7,69.09,69.09,0,0,0-.8-11.1c.1,1.8.3,3.7.3,5.5.1,4.5,0,8.9,0,13.3a4.89,4.89,0,0,1-.8,2.3c-.8,1.5-1.5,3-2.3,4.5a4.62,4.62,0,0,1-.9,1.5,88,88,0,0,0,2.1-11.4c-.2.8-.3,1.6-.5,2.4-.7,3-1.3,6-2.1,9-.5,2.1-1.4,4-2.1,6.1a23.66,23.66,0,0,1-3.8,7.2,38.56,38.56,0,0,1-5.4,6,1.47,1.47,0,0,1-1.4.5,2.77,2.77,0,0,0-.9-.1,2.65,2.65,0,0,1-.89,0,23.33,23.33,0,0,0,2.39.16,1.82,1.82,0,0,0,1.1-.5c1.3-1.4,2.5-2.8,3.8-4.2a16.33,16.33,0,0,0,1.7-2c1-1.4,1.9-2.9,2.8-4.4a6.72,6.72,0,0,0,.6-1.2c.8-2.1,1.5-4.3,2.3-6.4a.52.52,0,0,1,.2-.4,11.23,11.23,0,0,0,2.4-3.7,25.28,25.28,0,0,1,1.3-2.2,4.33,4.33,0,0,1,.1.5c.1,2.1.3,4.1.4,6.2.2,2.4.4,4.7.5,7.1.3,7.1,1.2,14.1,1.9,21.1.1,1.3.2,2.6.4,3.9a1.14,1.14,0,0,0,.3.8c-.4-6.9-1.4-13.7-1.8-20.6.4,2.1.8,4.1,1.2,6.1,1.1,5.5,2.2,10.9,3.3,16.4,0,.3.1.5.1.8h.3C83.4,130.2,83,127.6,82.5,125ZM49,32.1a4.35,4.35,0,0,1-.7.6,2.18,2.18,0,0,1,.4.5c-.1.1-.1.1-.1.2l-1.3-.3c-.3-.1-.3-.6,0-.9a7.46,7.46,0,0,1,1.2-.7.44.44,0,0,1,.5.1A.45.45,0,0,1,49,32.1Z"/><path d="M70.2,62.9a1.38,1.38,0,0,1,.4-.3c-1,3.7-1.9,7.4-2.9,11a9.62,9.62,0,0,1-1.6,3.2c-.1.2-.2.5-.3.7a29.91,29.91,0,0,1-3.9,7,18.82,18.82,0,0,1-1.6,2.3A7.51,7.51,0,0,1,57.8,89c-.4.1-.5.4-.6.7a8.34,8.34,0,0,1-.8,1.2,1.62,1.62,0,0,1-.9.5c-.7.2-1.3.4-2,.6,0-.5-.1-.9-.1-1.4,0-.3-.1-.4-.4-.4a4.16,4.16,0,0,0-2.2.2,7,7,0,0,1-1.7-3.3c-.3-1.7-.8-3.3-1.1-5-.2-1-.3-2-.4-3,0-.1,0-.4-.1-.5a2.26,2.26,0,0,1-.1-1.8,55.42,55.42,0,0,0,.6-10V65.6l.2.2h.1c-.1-2.7-.3-5.3-.4-8h-.3c-.1,2.3.1,4.5.2,6.8A36.52,36.52,0,0,1,46,61.2a.76.76,0,0,1,.1.4,9,9,0,0,0,1.6,3.6.75.75,0,0,1,.1.5c-.1,2.9-.3,5.7-.5,8.6a28.51,28.51,0,0,1-.3,2.9c-.4-.4-.9-.4-.9-.9a.1.1,0,0,0-.1-.1,3,3,0,0,0-3.1.9v.1c.9-.6,1.9-1.1,3-.5a1.47,1.47,0,0,1,.9,1.1c-.9-.4-1.4-1.2-2.5-1.2a.77.77,0,0,1,.3.2L46.1,78c.3.3.7.5,1,.8a.76.76,0,0,1,.2.5A52.2,52.2,0,0,0,48.4,85c.1.9.4,1.8.6,2.9-.5-.5-.8-.9-1.2-1.3l-.1.1c.7,1.6,2.2,2.7,3.1,4.1a.81.81,0,0,1-.4.8,3,3,0,0,1-.8.4.75.75,0,0,1,.6-.7,2.65,2.65,0,0,0,.6-.5,1.45,1.45,0,0,1-1,.1,1.39,1.39,0,0,0-1.2,1.3c-.1.7-.1,1.4-.2,2.1a5.64,5.64,0,0,1-.4,1.2c-.7,1.3-1.3,2.5-2,3.7a3.07,3.07,0,0,0-.2,2.1,1.1,1.1,0,0,1,0,.8c-.7,1.3-1.4,2.7-2.1,4l-.1.1h0l0,.2a1.9,1.9,0,0,1,0,.82,5.48,5.48,0,0,1,0,1.08,11.13,11.13,0,0,1-.08,2.51,4.8,4.8,0,0,1,0,2.11c0,.07,0,.15,0,.22l.06,0a193.62,193.62,0,0,0-1.3,20c.1,0,.1,0,.4-.6.3-4.7.6-9.5.9-14.2q.15-3.15.6-6.3a9.09,9.09,0,0,1,.8-1.8l.07.12c.2-.65-.42-1.39.13-2.12a28,28,0,0,0,1.5-3c.1-.1.2-.3.3-.4a4.88,4.88,0,0,1,.7.3.93.93,0,0,0,1.2-.6c.7-1.2,1.4-2.4,2.1-3.7a1.69,1.69,0,0,1,.2.5c-.1,3.4-.1,6.9-.3,10.3a3.23,3.23,0,0,1-1.06,2,4.35,4.35,0,0,0,.46-.32,3.47,3.47,0,0,0,1.3-2.9c0-1,.1-1.9.1-2.9v-6.9a3,3,0,0,1,2.1.1,2.55,2.55,0,0,0,1,.19l.1-.09c-.4-.3-.6-.6-.9-.8l-.1.1a2.77,2.77,0,0,1,.1-.9c.1-.2.4-.4.5-.6.1-.4.3-.9.4-1.3-.1,0-.1-.1-.2-.1-.1.2-.3.4-.4.6a3.51,3.51,0,0,0-.5.8c-.2.3-.4.6-.8.4s-.8-.4-.8-.6a1,1,0,0,1,.4-1c.6-.3.8-.9,1.1-1.4a2.51,2.51,0,0,0,.1-1.9,4.4,4.4,0,0,1-.2-1,.76.76,0,0,1,.7-.8,14.61,14.61,0,0,0,2-.5c0,.2.1.3.3.7.7-.6.7-1.9,1.8-1.8,0,.2-.1.4,0,.5.2.4.5.8.7,1.3s.3,1,.5,1.5.2.7.3,1.1a.37.37,0,0,1-.1.3c-.3.2-.3.8-.9.8-.1,0-.2.2-.2.3q-.26.52-.56,1L58.5,97a5.72,5.72,0,0,1,.7-.8c.1-.1.3-.2.4-.4a7.27,7.27,0,0,0,.8-.9v.7c.3,5.4.3,10.7.2,16,0,.2.1.3.2.5,0-.1.2-.2.2-.4a4.87,4.87,0,0,0,.1-1.2c.1-2.7.2-5.3.1-7.9s-.3-5.2-.4-7.8a15,15,0,0,0-.2-2.2,3.1,3.1,0,0,0-1.9-2.5,9.21,9.21,0,0,1-.8-.5,1.75,1.75,0,0,1,.5-.4,7.34,7.34,0,0,0,3-2.8c1.2-1.9,2.4-3.9,3.7-5.7a14.69,14.69,0,0,1,2.2-2.1,10.15,10.15,0,0,1,1.3-.9A6,6,0,0,0,66.1,79a17.08,17.08,0,0,1,.7-1.8c1.8-3.3,2.4-7,3.3-10.6.4-1.6.6-3.3,1.1-4.9a28.48,28.48,0,0,1,1.2-3.1,11.92,11.92,0,0,0,.8-2A24.46,24.46,0,0,0,70.2,62.9Z"/><path d="M40.46,80.15a7.84,7.84,0,0,0-.26,1.75c0,.72,0,1.41,0,2.11q0-1.05.06-2.11A10.3,10.3,0,0,1,40.46,80.15Z"/><path d="M41.5,95.5a27.22,27.22,0,0,1-1.2-8c0-1.18,0-2.34-.06-3.49a58.85,58.85,0,0,0,.16,7.19,24.25,24.25,0,0,0,1.7,6.4c.1.24.19.47.28.7a1.73,1.73,0,0,0-.18-.5A20.16,20.16,0,0,0,41.5,95.5Z"/><path d="M42,85.8l.6,12.6h-.18a9.83,9.83,0,0,1,.68,2.8c.06,1,.15,2,.25,3-.28-5.11-.57-10.15-.85-15.27A28.67,28.67,0,0,0,42,85.8Z"/><path class="cls-1" d="M42.5,133.1c.3-4.7.5-9.5.9-14.2q.15-3.15.6-6.3a9.09,9.09,0,0,1,.8-1.8c.1.2.2.3.2.4a16.27,16.27,0,0,1,1.1,2.3,2,2,0,0,0,2.1,1.3,2.84,2.84,0,0,0,1.9-.9,3.6,3.6,0,0,0,1.3-2.9c0-1,.1-1.9.1-2.9v-6.9a3,3,0,0,1,2.1.1,6.8,6.8,0,0,0,1.5.2c0,.5.1,1.2.1,1.8,0,3.3-.1,6.7-.1,10a.78.78,0,0,0,.3.7c.7.6,1.4,1.1,2.2,1.7a.37.37,0,0,0,.3.1,26.35,26.35,0,0,0,2.8.2,1.43,1.43,0,0,0,1.1-.5c1.3-1.4,2.6-2.8,3.8-4.2a16.32,16.32,0,0,0,1.7-2c1-1.4,1.9-2.9,2.8-4.4l.6-1.2c.8-2.1,1.6-4.3,2.3-6.4a.76.76,0,0,1,.2-.4,11.23,11.23,0,0,0,2.4-3.7A25.29,25.29,0,0,1,76.9,91a4.33,4.33,0,0,0,.1.5c.1,2.1.3,4.1.4,6.2.2,2.4.3,4.7.5,7.1.3,7,1.2,14.1,1.9,21.1.1,1.3.3,2.6.4,3.9a1.33,1.33,0,0,0,.3.8c-.4-6.9-1.4-13.7-1.8-20.6.4,2,.8,4,1.2,6.1,1.1,5.5,2.2,10.9,3.3,16.4a2.2,2.2,0,0,1,.1.8C69.7,133.1,56.1,133.1,42.5,133.1Z"/><path class="cls-1" d="M50.8,90.8a1.85,1.85,0,0,1-.7.2,1.48,1.48,0,0,0-1.2,1.3c-.1.7-.1,1.4-.2,2.1a4.23,4.23,0,0,1-.4,1.2c-.6,1.2-1.3,2.5-2,3.7a3.07,3.07,0,0,0-.2,2.1c0,.3.1.6,0,.8-.7,1.4-1.4,2.7-2.1,4l-.1.1h-.1c0-.4-.1-.8-.1-1.2-.3-5.4-.6-10.7-.9-16.1-.1-1-.3-2-.5-3.1l.6,12.6h-.2a1.42,1.42,0,0,1-.2-.6,15.46,15.46,0,0,0-.7-2.3,21.92,21.92,0,0,1-1.2-8c0-1.9-.1-3.7-.1-5.6a8.52,8.52,0,0,1,.4-2.3c1.1-4.4,2.1-8.9,3.2-13.3a10.88,10.88,0,0,0,.6-3.6.37.37,0,0,1,.1-.3,15.83,15.83,0,0,0,.9-3.1c.2-.9.6-1.7.8-2.6A3.62,3.62,0,0,1,48,55.3c1.3-.7,2.6-1.3,3.9-2,.9-.4,1.8-.9,2.7-1.4.7,1.3,2,1.6,3.3,2.1a7.58,7.58,0,0,0,1.6.3c.3.1.5.1.8.2a4.87,4.87,0,0,0,1.2.1.76.76,0,0,0,.4-.2v-.2a.6.6,0,0,1-.4-.1,10.87,10.87,0,0,1-1.8-.1,8.62,8.62,0,0,1-4.5-2.4c-.1-.1-.2-.5-.1-.6a6.12,6.12,0,0,1,.5-1.2,2.77,2.77,0,0,0,.1-.9c1.4.3,2.7.7,4.1,1a6.35,6.35,0,0,0,4.3-.3,27.18,27.18,0,0,0,2.5-1.1,5.72,5.72,0,0,0,.8-.7,26.14,26.14,0,0,1,1.7-2c0,.7.1,1.3-.4,1.7,0,.2.1.3.1.4a13.32,13.32,0,0,0-.5,1.9c-.1.2-.1.5-.2.7-.2.5-.1.5-.1.5.2-.3.4-.7.6-1a2,2,0,0,1,.1,2.3l-.3.3A35.92,35.92,0,0,1,65,54.3a18.88,18.88,0,0,1-1.8.6,5.58,5.58,0,0,0,1.3,0c1-.4,2-.9,2.9-1.3.3-.1.6-.1.8-.3s.5-.2.6-.4c.3-.3.4-.6.7-.9a19.72,19.72,0,0,0,4.2,2.4c1.1.6,2.2,1.1,3.2,1.7a1.6,1.6,0,0,1,.7.9,11.25,11.25,0,0,1,1.2,5.1v8c-.1,2.7-.2,5.5-.4,8.2A5.26,5.26,0,0,1,78,80a68.28,68.28,0,0,0-.8-11.1c.1,1.8.3,3.7.3,5.5V87.7a4.89,4.89,0,0,1-.8,2.3,38.12,38.12,0,0,0-2.3,4.5L73.5,96a91.17,91.17,0,0,0,2.1-11.4c-.2.8-.3,1.6-.5,2.4-.7,3-1.3,6-2.1,9-.6,2.1-1.5,4.1-2.1,6.1a24.87,24.87,0,0,1-3.8,7.2,43.71,43.71,0,0,1-5.4,6,1.47,1.47,0,0,1-1.4.5,2.77,2.77,0,0,0-.9-.1c-1.4.2-2.3-.6-3.3-1.3a1.17,1.17,0,0,1-.5-1.1c0-3.6.1-7.2,0-10.9a2.79,2.79,0,0,1,.8-2c.8-.9,1.4-2,2.1-2.9a5,5,0,0,1,.7-.8c.1-.2.3-.3.4-.4a5.74,5.74,0,0,1,.8-.9v.7c.3,5.3.3,10.6.2,16,0,.2.1.3.2.5a.76.76,0,0,0,.2-.4c0-.4.1-.8.1-1.2,0-2.6.1-5.2.1-7.9s-.2-5.2-.4-7.8a18,18,0,0,0-.2-2.2,3.47,3.47,0,0,0-1.9-2.5,3.51,3.51,0,0,1-.8-.5,1.76,1.76,0,0,1,.5-.4,7.39,7.39,0,0,0,3-2.8c1.3-1.9,2.4-3.8,3.7-5.7a14.69,14.69,0,0,1,2.2-2.1c.4-.3.9-.6,1.3-.9-1,.1-1.6.8-2.5,1.3a7.51,7.51,0,0,1,.7-1.8c1.8-3.3,2.4-7,3.3-10.6.4-1.6.7-3.3,1.1-4.9a28.5,28.5,0,0,1,1.2-3.1c.3-.7.5-1.3.8-2a30.53,30.53,0,0,0-3,6.3,1.38,1.38,0,0,1,.4-.3c-1,3.7-1.9,7.4-2.9,11a9.62,9.62,0,0,1-1.6,3.2c-.1.2-.2.5-.3.7a29.91,29.91,0,0,1-3.9,7,18.82,18.82,0,0,1-1.6,2.3,8.81,8.81,0,0,1-2.5,2.2,2,2,0,0,0-.6.7,5,5,0,0,1-.8,1.2,2.62,2.62,0,0,1-.9.5c-.6.2-1.3.4-2,.6,0-.5-.1-.9-.1-1.4,0-.3-.1-.4-.4-.4-.7,0-1.5-.3-2.2.1a6.23,6.23,0,0,1-1.7-3.2c-.3-1.7-.8-3.3-1.1-5-.2-1-.3-2-.4-3a.75.75,0,0,0-.1-.5c-.5-.6-.2-1.2-.1-1.8a47.6,47.6,0,0,0,.6-10V66.1c.1.1.2.1.2.2h.1c-.1-2.7-.3-5.3-.4-8h-.3c-.1,2.3.1,4.5.2,6.8-.9-1-1.1-2.3-1.8-3.4a.76.76,0,0,0,.1.4,9.71,9.71,0,0,0,1.6,3.6c.1.1.1.4.1.5-.2,2.9-.3,5.7-.5,8.6-.1.9-.2,1.8-.3,2.9-.4-.3-.9-.3-.9-.9l-.1-.1a2.81,2.81,0,0,0-3.1.9v.1c.9-.6,1.9-1.1,3-.5a1.71,1.71,0,0,1,.9,1.1c-.9-.3-1.5-1.2-2.5-1.2.1.1.2.2.3.2l1.5,1.2c.3.3.7.5,1,.8a.76.76,0,0,1,.2.5,38.19,38.19,0,0,0,1.1,5.7c.2.9.4,1.9.6,2.9-.5-.5-.8-.9-1.2-1.3l-.1.1c.7,1.1,2.2,2.2,3.1,3.6Zm11.4-22c0,.2-.1.3-.1.4,0,2.8.1,5.6.1,8.5a19.61,19.61,0,0,1-.1,3.4,12.18,12.18,0,0,1-1.5,4c-.1.2-.1.4-.2.5.1,0,.1,0,.2.1a14.43,14.43,0,0,0,1.7-4.5,6.15,6.15,0,0,0,.1,1.3,1.24,1.24,0,0,1,.2-.3C62.6,77.7,62.4,73.3,62.2,68.8ZM53.8,82.9h.3c.2-6.4-.2-12.8,1.2-19.1C53.6,70.1,53.9,76.5,53.8,82.9ZM70.4,57.2c-1,1-2.9,6.9-2.8,8.1C68.5,62.7,69.5,59.9,70.4,57.2ZM49.8,73.3h.3V63.7A61.62,61.62,0,0,0,49.8,73.3Zm3.4,4.4h0c-.3,1.9-.5,3.8-.8,5.7a1.84,1.84,0,0,0,.5,1.5.37.37,0,0,0,.3.1l.1-.1c-.2-.2-.3-.5-.5-.7s-.2-.4-.1-.5c.1-1,.3-2.1.3-3.1A26.42,26.42,0,0,0,53.2,77.7Zm4.7,8.8v-.2a13.36,13.36,0,0,0-1.8.7,5.08,5.08,0,0,1-3.2.5v.2C54.7,88.3,56.3,87.2,57.9,86.5Z"/><path class="cls-1" d="M52.2,28.9h1.4l.1-.1a8.7,8.7,0,0,0-1.1-.9,3.87,3.87,0,0,0-3-.1c-.9.4-1.9.5-2.8,1a17,17,0,0,0-2.2,1.5,2.72,2.72,0,0,1,0-.9,18.31,18.31,0,0,1,3.2-7.1c.6-.8,1-1.7,1.6-2.5a20,20,0,0,1,1.9-2.2c.2-.3.8-.2.8-.7l.6.3c.2-.6.6-.7,1.2-.4.1.1.3,0,.4-.1a.69.69,0,0,1,.9-.3c.4.1.8-.2,1.2-.3s1-.3,1.5-.4c.1,0,.3.1.4.1,1.8,1,3.7,1.9,5.5,2.9.9.5,1.8,1.2,2.7,1.7a10.35,10.35,0,0,1,2.7,2.4A7.75,7.75,0,0,1,71,27.4a24.2,24.2,0,0,1,.2,3.8c0,1.8.3,3.5.3,5.3a11.77,11.77,0,0,1-1,5.2A27.31,27.31,0,0,1,67.6,47a6.23,6.23,0,0,1-2.8,2.3,8.55,8.55,0,0,1-4.7.8,12.8,12.8,0,0,1-4.6-1.7c-1.3-.8-2.6-1.8-3.9-2.7a21.58,21.58,0,0,1-2.7-3.3,10.81,10.81,0,0,1-1.1-1.8l-1.2-2.7c-.8-2-1.5-4.1-2.3-6.2-.1-.2,0-.4,0-.5a2.65,2.65,0,0,1,.5-.6,11.4,11.4,0,0,1,3.4-1.9,4.33,4.33,0,0,1,.5-.1A10.28,10.28,0,0,0,47.2,30a10.63,10.63,0,0,0-1.5,1.5,1.23,1.23,0,0,0,.4,2c2,1.3,3.7.7,5.6-.3A7.07,7.07,0,0,1,53.5,32c-.8-.5-1.2.6-1.9.6,0-.7.1-1.3.1-2.1a2.27,2.27,0,0,1,1.2.6c.4.2.5.8,1.1.7C54.1,30.5,53,29.9,52.2,28.9Zm8.2.5a.37.37,0,0,1,.3.1c.1-.2.2-.3.3-.5.2-.5.3-1,.5-1.5a1.6,1.6,0,0,1,1.8-.6c-.4.4-.8.7-1.2,1.1a3,3,0,0,0,.5.7c-.5.3-1.2,0-1.5.8a6.17,6.17,0,0,1,1.8-.2,6,6,0,0,0,3-.6,4.67,4.67,0,0,0,2.4-2.2.52.52,0,0,0-.2-.8,14,14,0,0,0-1.7-.9,3.08,3.08,0,0,0-1.3-.3c-1,0-2,.1-3.1.1a6.93,6.93,0,0,1,6.4-1.2,1.27,1.27,0,0,1,.6.1v-.2l-.9-.3a8.31,8.31,0,0,0-5.4.5c-.3.1-.7.1-.9.3-.7.5-1.3,1.2-1.9,1.7-.4.4-.3.9-.4,1.4l.1.1a7,7,0,0,1,.9-.6A28.13,28.13,0,0,0,60.4,29.4Zm5,12.4c-1-.5-1.9-.8-2.7-1.3a.78.78,0,0,0-1,.2,1.88,1.88,0,0,1-1.7.8,1.42,1.42,0,0,0-1.5.9c-.4.7-.8,1.4-1.3,2.2a2.48,2.48,0,0,1,.9.1,9,9,0,0,0,4,.2c.3-.1.6-.1.7-.3A33.21,33.21,0,0,1,65.4,41.8ZM63,37.3c-.5-1-.9-1.1-1.6-.3-.1.1-.2.3-.3.4a2.7,2.7,0,0,1-2.2,1c-.5,0-.9-.1-1.4-.1s-.6.1-.5.5c0,.1.3.3.4.4s.5.1.7.2l1.5.6a1.29,1.29,0,0,0,1.2-.1,2.73,2.73,0,0,0,1.3-1.5C62.2,37.9,62.3,37.3,63,37.3Z"/><path class="cls-1" d="M47,104.8a4.88,4.88,0,0,0,.7.3c.6.2.9,0,1.2-.6.7-1.2,1.4-2.4,2.1-3.7.1.2.2.3.2.5-.1,3.4-.1,6.9-.3,10.3a3.16,3.16,0,0,1-1.5,2.4,2,2,0,0,1-2.9-.7c-.5-.9-.9-1.8-1.4-2.7l-.1-.1c.4-.7-.4-1.5.2-2.3a28,28,0,0,0,1.5-3A1.38,1.38,0,0,0,47,104.8Z"/><path class="cls-1" d="M56.3,91.8v.4c.7-.6.7-1.9,1.8-1.8v.5c.2.5.5.9.7,1.3s.3,1,.5,1.5.2.7.3,1.1a.37.37,0,0,1-.1.3c-.3.3-.3.9-.9.8a1.44,1.44,0,0,1-.2.3,17,17,0,0,1-2.7,3.9c-.4.4-.8,1-1.6.8a2.74,2.74,0,0,1,.5-.4c-.3-.3-.6-.5-.9-.8l-.1.1a2.77,2.77,0,0,1,.1-.9,2.65,2.65,0,0,1,.5-.6c.1-.5.3-.9.4-1.3-.1,0-.1-.1-.2-.1-.1.2-.3.4-.4.6a3.51,3.51,0,0,0-.5.8c-.2.3-.4.6-.8.4s-.8-.3-.8-.6a1.78,1.78,0,0,1,.4-1c.6-.3.8-.9,1.1-1.4a2.11,2.11,0,0,0,.1-1.9c-.1-.3-.1-.6-.2-1s.2-.8.7-.8A4.13,4.13,0,0,0,56.3,91.8Z"/><path class="cls-1" d="M48.6,33.4l-1.4-.3c-.3-.1-.3-.6,0-.9a7.46,7.46,0,0,1,1.2-.7c.1-.1.4,0,.5.1a.45.45,0,0,1,0,.5c-.2.2-.5.4-.7.6.1.2.3.3.4.5S48.7,33.3,48.6,33.4Z"/><path class="cls-1" d="M50.8,90.8c.1.4-.1.6-.4.8a5.9,5.9,0,0,0-.8.4c0-.4.3-.5.6-.7a2.65,2.65,0,0,0,.6-.5Z"/><path d="M62.2,68.8c.2,4.6.4,9,.6,13.4,0,.1-.1.1-.2.3,0-.5-.1-.9-.1-1.3a17.42,17.42,0,0,1-1.7,4.5c-.1,0-.1,0-.2-.1.1-.2.1-.4.2-.5a14.93,14.93,0,0,0,1.5-4c.1-1.1.1-2.2.1-3.4,0-2.8-.1-5.6-.1-8.5C62.1,69.1,62.1,69,62.2,68.8Z"/><path d="M53.8,82.9c.1-6.4-.3-12.8,1.5-19.1-1.5,6.3-1.1,12.7-1.2,19.1Z"/><path d="M70.4,57.2c-.9,2.7-1.9,5.5-2.8,8.1C67.6,64.1,69.5,58.1,70.4,57.2Z"/><path d="M49.8,73.3a77.59,77.59,0,0,1,.3-9.6v9.6Z"/><path d="M53.2,77.7c-.1,1-.1,1.9-.2,2.9s-.2,2.1-.3,3.1a4.33,4.33,0,0,0,.1.5,1.79,1.79,0,0,0,.5.7l-.1.1c-.1,0-.3,0-.3-.1a1.84,1.84,0,0,1-.5-1.5c.3-1.9.5-3.8.8-5.7Z"/><path d="M57.9,86.5c-1.6.8-3.2,1.8-5.1,1.2v-.2A7,7,0,0,0,56,87a13.36,13.36,0,0,0,1.8-.7C57.8,86.4,57.9,86.4,57.9,86.5Z"/><path d="M60.4,29.4V26.2l-.9.6-.1-.1c.1-.5,0-1,.4-1.4.6-.6,1.3-1.2,1.9-1.7.2-.2.6-.2.9-.3a9.15,9.15,0,0,1,5.4-.5l.9.3v.2a1.27,1.27,0,0,1-.6-.1,9.33,9.33,0,0,0-4.7.2,7.54,7.54,0,0,0-1.7,1c1.1,0,2.1-.1,3.1-.1a6.11,6.11,0,0,1,1.3.3c.6.3,1.2.6,1.7.9a.52.52,0,0,1,.2.8,4.67,4.67,0,0,1-2.4,2.2,6,6,0,0,1-3,.6,12.37,12.37,0,0,0-1.8.2c.3-.8,1-.5,1.5-.8-.2-.3-.4-.5-.5-.7.4-.4.8-.7,1.2-1.1a1.6,1.6,0,0,0-1.8.6c-.2.5-.3,1-.5,1.5-.1.2-.2.3-.3.5A.31.31,0,0,1,60.4,29.4Zm5-1.3a2.42,2.42,0,0,0,1.9-1.3.53.53,0,0,0-.1-.8,2.67,2.67,0,0,0-2-.6C65.9,26.4,66.1,27.2,65.4,28.1Z"/><path d="M65.4,41.8c-.9,1-1.8,1.8-2.7,2.7a1.08,1.08,0,0,1-.7.3,9.1,9.1,0,0,1-4-.2c-.2-.1-.5,0-.9-.1a25.29,25.29,0,0,1,1.3-2.2,1.42,1.42,0,0,1,1.5-.9,1.69,1.69,0,0,0,1.7-.8.78.78,0,0,1,1-.2A14.65,14.65,0,0,0,65.4,41.8Zm-7.3,2.5v.2h2.7c1.7.1,2.6-1.1,3.7-2.3a9.15,9.15,0,0,0-1.6-.1,6.72,6.72,0,0,0-1.2.6c0-.1,0-.1-.1-.2a1.69,1.69,0,0,1,1.9-1l-.9-.6c-.4-.2-.6-.2-.9.1a2.62,2.62,0,0,1-1.8.9,1.26,1.26,0,0,0-1.3,1.3c.1,0,.1,0,.1-.1.6-.7,1.5-.6,2.3-.6a.76.76,0,0,1,.4.2,1.38,1.38,0,0,1-.4.3,1.27,1.27,0,0,1-.6.1C59.5,43.1,58.9,43.9,58.1,44.3Z"/><path d="M63,37.3c-.7,0-.7.6-.9,1a2.73,2.73,0,0,1-1.3,1.5,1.29,1.29,0,0,1-1.2.1l-1.5-.6c-.2-.1-.5-.1-.7-.2s-.4-.2-.4-.4a.47.47,0,0,1,.5-.5,6.6,6.6,0,0,0,1.4.1,2.7,2.7,0,0,0,2.2-1c.1-.1.2-.3.3-.4C62,36.2,62.4,36.3,63,37.3Z"/><path class="cls-1" d="M65.4,28.1a2,2,0,0,0-.1-2.6,2.81,2.81,0,0,1,2,.6.52.52,0,0,1,.1.8A3,3,0,0,1,65.4,28.1Z"/><path class="cls-1" d="M58.1,44.3c.8-.4,1.4-1.2,2.4-1a1.27,1.27,0,0,0,.6-.1c.1,0,.3-.2.4-.3a.76.76,0,0,0-.4-.2,2.81,2.81,0,0,0-2.3.6.1.1,0,0,0-.1.1A1.4,1.4,0,0,1,60,42.1a2.43,2.43,0,0,0,1.8-.9c.3-.3.5-.4.9-.1a4.7,4.7,0,0,1,.9.6,1.58,1.58,0,0,0-1.9,1c0,.1,0,.1.1.2a6.72,6.72,0,0,1,1.2-.6,4.45,4.45,0,0,1,1.6.1c-1.1,1.2-2,2.3-3.7,2.3H58.2A1.58,1.58,0,0,1,58.1,44.3Z"/><path d="M51.5,52.8l.1-.1A.1.1,0,0,0,51.5,52.8Z"/><path d="M83.1,129.9c0-.1.1-.2,0-.3v-.2a.52.52,0,0,0-.2-.4v-.2c0-.2,0-.3-.1-.4a.38.38,0,0,0,.1-.6c-.1-.2-.3-.4-.4-.6a.37.37,0,0,0-.1-.3,9.85,9.85,0,0,0-.2-1.7,3.25,3.25,0,0,0-.4-1.4.1.1,0,0,0-.1-.1,9.86,9.86,0,0,0-.3-2.4.1.1,0,0,0-.1-.1V121a6.5,6.5,0,0,0-.27-1.12.49.49,0,0,0,.09-.58,11.41,11.41,0,0,1-.68-3.54c-.09-.55-.34-1.06-.44-1.61a12.74,12.74,0,0,0-.18-1.62.47.47,0,0,0-.39-.34c-.08-.51-.17-1-.22-1.6a2.08,2.08,0,0,0-.3-1.3l-.2-.2c-.1-.2-.2-.5-.3-.7v-.2a7.93,7.93,0,0,0,0-1.81,2.32,2.32,0,0,0-.23-1.61v0a3.11,3.11,0,0,0,0-.66q0-.41,0-.83a2.07,2.07,0,0,0,0-1.05h0c0-.72,0-1.43,0-2.15a.25.25,0,0,0,0,0v-.6a.52.52,0,0,0-.06-.24c0-.31-.06-.61-.11-.92a.41.41,0,0,0-.14-.26,3.65,3.65,0,0,0-.09-.78c0-.1,0-.2-.1-.2V95.2a3.85,3.85,0,0,0-.19-1.12.55.55,0,0,0,0-.5l0-1.34a8.22,8.22,0,0,0-.07-1.67.46.46,0,0,0-.12-.22,1.9,1.9,0,0,0,0-.25c.1-.2.1-.5.2-.7s.1-.4.2-.6a4.15,4.15,0,0,0,.3-1.6V86a1.7,1.7,0,0,0-.1-.7,3.75,3.75,0,0,0-.1-1.1,3.76,3.76,0,0,0,.1-2.1V81l.6-1.2a1.85,1.85,0,0,0,.2-.7,5.46,5.46,0,0,0,.1-1.8l.1-.2a4.87,4.87,0,0,0,0-2.4c0-.1.1-.2.1-.3a5,5,0,0,0,.1-2.1,4.87,4.87,0,0,0,0-2.4,2,2,0,0,0,.1-.8,4.08,4.08,0,0,0-.1-1.9,5.28,5.28,0,0,0,.1-1.3,4.25,4.25,0,0,0-.2-1.1,6.05,6.05,0,0,0-.07-2.13h0V59.23a.45.45,0,0,0-.33-.46,5.26,5.26,0,0,0-.3-1,.55.55,0,0,0,.12-.93,6.45,6.45,0,0,1-.55-.51.5.5,0,0,0-.21-.44c-2.41-1.76-5.36-2.64-7.83-4.32a.49.49,0,0,0-.19-.08,8,8,0,0,1-.45-.88,5.35,5.35,0,0,1-.25-1,8.9,8.9,0,0,1,0-1.59,2.63,2.63,0,0,0,.4-1.68.48.48,0,0,0-.06-.23.46.46,0,0,0-.41-.58c.22-.37.44-.74.65-1.12a2.73,2.73,0,0,0,.34-.65A18.3,18.3,0,0,0,71.27,40a14.74,14.74,0,0,0,.46-3.1.53.53,0,0,0,0-.06c0-.13,0-.27,0-.4s0-.07,0-.1q.06-1.59,0-3.17a4.91,4.91,0,0,0,6-2.1,9.16,9.16,0,0,0,.7-5.4,4.12,4.12,0,0,0-1.2-3.5,5.29,5.29,0,0,0-3.5-1.5,5,5,0,0,0-2.4.6c-.1-.2-.2-.3-.3-.5a5,5,0,0,0,1-5.2,4.6,4.6,0,0,0-4.7-3.9,4.27,4.27,0,0,0-2.4.6h-.2a5.8,5.8,0,0,0-3.1.5c-3.1,1.6-7.1,1.5-10.4,2.8-3.9,1.6-7.8,3.3-11.6,5a.35.35,0,0,0-.2.1,4.18,4.18,0,0,0-1.8,1.1,5.29,5.29,0,0,0-1.5,3.5v.3a5.09,5.09,0,0,0,1.5,3.5,6.25,6.25,0,0,0,2.1,1.3,4.67,4.67,0,0,0,1.7.3,4.1,4.1,0,0,0,1.1-.1,16.6,16.6,0,0,1-.3,2.2,2,2,0,0,0,.9,2.2,1.88,1.88,0,0,0,1.4,2.3v-.1c0-.1,0,0,.2.2a4,4,0,0,0,.3.4c.2.4.4.9.7,1.4A5.48,5.48,0,0,0,47.4,41a.88.88,0,0,0,.7.9.37.37,0,0,0,.1.3c.1.1.1.2.2.3a.1.1,0,0,0,.1.1c.1.2.1.4.2.5a8.65,8.65,0,0,0,.7,1c.1.1.3.2.4.3a.22.22,0,0,0,.2.2.76.76,0,0,0,.2.4c.1.1.2.2.3.2l.1.1.1.1.3.3.2.2.2.2a1.79,1.79,0,0,0,.7.5.68.68,0,0,0,.6.4.1.1,0,0,0,.1.1c.1.2.3.3.4.4l.2.2a1.08,1.08,0,0,0,.7.3c0,.1.1.1.1.2a2.09,2.09,0,0,0,.6.4.85.85,0,0,0-.2.6v.1a1.7,1.7,0,0,0-.1.7c0,.1-.1.1-.1.2v.1a.1.1,0,0,1-.1.1c0,.1-.1.2-.1.3a.75.75,0,0,0,0,.9h-.4c-.2.1-.3.2-.5.2a.1.1,0,0,0-.1.1c-.1,0-.1.1-.2.1a10.89,10.89,0,0,0-1.1.6c-.1,0-.1,0-.2.1s-.1.1-.2.1h-.1c-.1,0-.1.1-.2.1h-.1c-.1.1-.2.1-.3.2s-.1,0-.2.1-.2.1-.2.2l-.6.3h-.1a6,6,0,0,0-.8.4,7.46,7.46,0,0,0-1.2.7.1.1,0,0,0-.1.1,1.12,1.12,0,0,0-.8.7,3.53,3.53,0,0,0-.8,1.3V57a6.89,6.89,0,0,0-.3.8c0,.1-.1.1-.1.2s-.1.3-.1.5a.37.37,0,0,0-.1.3v.4a.35.35,0,0,1-.1.2v.3c0,.1-.1.2-.1.3v.2a.37.37,0,0,0-.1.3c0,.1-.1.2-.1.3v.3a.37.37,0,0,0-.1.3c0,.1-.1.1-.1.2a.1.1,0,0,1-.1.1c0,.1-.1.2-.1.3s-.2.4-.1.3a.75.75,0,0,0-.1.5V63c-.1.1-.1.2-.1.4V64c0,.1-.1.2,0,.3a.6.6,0,0,0-.1.4c0,.2-.1.4-.1.6a3.2,3.2,0,0,0-.1.7v.1a.37.37,0,0,0-.1.3v.06l-.19.73h0c0,.1-.1.2-.1.4s-.1.1-.1.2a5.66,5.66,0,0,0-.11.6c-.16.57-.32,1.14-.52,1.7a.42.42,0,0,0,0,.33,5.56,5.56,0,0,1-.28.88.37.37,0,0,0-.1.3c-.08.59-.23,1.12-.34,1.69a.47.47,0,0,0,0,.07l0,.08a.47.47,0,0,0,0,.12.46.46,0,0,0,0,.1v0a.46.46,0,0,0-.05.22h0c0,.13,0,.25-.09.38v0l0,.06c-.06.19-.13.38-.18.57a.48.48,0,0,0,0,.24c-.1.35-.2.72-.3,1.11v.3c0,.2-.1.4-.1.6a.1.1,0,0,1-.1.1.37.37,0,0,1-.1.3c0,.1-.1.1-.1.2v.3l-.1.1a1.7,1.7,0,0,0-.1.7,8.74,8.74,0,0,0-.5,2.2.37.37,0,0,0-.1.3v.3c0,.1,0,.1.1.2a12.19,12.19,0,0,0,0,2.7v.8a14.72,14.72,0,0,0,0,2.1v.2c0,.1-.1.1,0,.2.1.6,0,1.1.1,1.7v.1c0,.1-.1.1,0,.2a2.77,2.77,0,0,0,.1.9c0,.2.1.4.1.6,0,0,0,0,0,0a.44.44,0,0,0-.1.45c.17.58.32,1.16.47,1.74a.48.48,0,0,0,0,.31c0,.07.05.13.08.2a.54.54,0,0,0,0,.19.47.47,0,0,0,0,.41l.21.39c.1.37.19.75.3,1.12s.29.87.46,1.3h0l0,.12,0,0a.4.4,0,0,0,.06.18.47.47,0,0,0,.11.23v0c-.12-.11,0,0,0,.14a.5.5,0,0,0,.08.17l0,.05h0c.2.51.4,1,.57,1.54a.48.48,0,0,0,0,.25c0,.07,0,.15,0,.22a1.22,1.22,0,0,0,0,.25.52.52,0,0,0,0,.35c0,.22,0,.45,0,.67a12.7,12.7,0,0,0,.16,1.88.45.45,0,0,0,0,.12,8.19,8.19,0,0,0,.1,1.56,10,10,0,0,0,.18,1.9.45.45,0,0,0,0,.11c0,.06,0,.12,0,.17,0,.64,1,.64,1,0,0-.11,0-.22,0-.32l0,0c.1.2.2.5.3.7a5.53,5.53,0,0,0-.7,2.5v.89a.5.5,0,0,0-.2.24,1.36,1.36,0,0,0-.09.68.49.49,0,0,0,0,.08.27.27,0,0,0,0,.12c0,.06,0,.12,0,.18a.5.5,0,0,0-.1.25c0,.22,0,.43,0,.65a.47.47,0,0,0-.24.69l0,.08a.83.83,0,0,0,0,.28.35.35,0,0,0-.05.17c0,.2-.1.4-.1.6v.4a.48.48,0,0,0,0,.7.37.37,0,0,0-.1.3,3.89,3.89,0,0,1-.2,1.5.37.37,0,0,0,.2.5v.1c-.1.4-.1.9-.2,1.3h0a.55.55,0,0,0-.09.75c0-.05-.14.47-.14.48,0,.24,0,.48,0,.72a.44.44,0,0,0,.15.37L42.57,128a.38.38,0,0,0,.11.32.5.5,0,0,0,0,.14q-.09,1.46-.12,2.91a.47.47,0,0,0,.05.23c0,.14,0,.27,0,.41h0a.45.45,0,0,0,.14.63.51.51,0,0,0,.7.53,4.82,4.82,0,0,0,1.5,3.2,5.29,5.29,0,0,0,3.5,1.5,4.25,4.25,0,0,0,1.1-.2,5.37,5.37,0,0,0,2.1-.5,5.47,5.47,0,0,0,5.8-3.4,5,5,0,0,0,2,.8,5.74,5.74,0,0,0,1.8.1,21.4,21.4,0,0,1,4.3,4.2c2.2,2.7,7.4,1.4,8.3-1.9a5.26,5.26,0,0,0,1.4-1.2h.2a4.74,4.74,0,0,0,5.3,2,5.37,5.37,0,0,0,3.1-4.8c.1-.1.1-.2.1-.4A5.3,5.3,0,0,1,83.1,129.9ZM53.1,32a1.38,1.38,0,0,0-.4.3c-.1.1-.2.2-.2.3a1.8,1.8,0,0,0-.9.6,2.2,2.2,0,0,0-1.6.5,3,3,0,0,0-1,.2h-.9a2,2,0,0,0-1.1-.3c-.2-.1-.3-.2-.5-.3.3-1.2,0-2.3,1-3.2l.1-.1a1.8,1.8,0,0,0,1.5-.7.9.9,0,0,0,.1-.5c.9-.2,1.7-.5,2.6-.7a3.31,3.31,0,0,0,1.6,2.6A3.45,3.45,0,0,1,53.1,32Zm14.6-5.6c-.1.2-.1.4-.2.6a1.79,1.79,0,0,0-.5.7,11.66,11.66,0,0,1-2.6,1c-.2.1-.5.2-.7.3-.1-.1-.2-.1-.4,0s-.5,0-.7,0-.5.1-.8.2c-.1,0-.2-.1-.3-.1a2,2,0,0,0-.8-.4v-.3a20.79,20.79,0,0,0,.3-2.3c.4-.2.9-.3,1.3-.5a1.76,1.76,0,0,0,.9-.8,1.27,1.27,0,0,0,.6-.1c.2,0,.3-.1.5-.2s.1.1.2.1a5.54,5.54,0,0,1,1.8.2h.3a12.48,12.48,0,0,0,1.2.9c.1,0,.1.1.2.1A.86.86,0,0,0,67.7,26.4Z"/></g></svg>