<svg id="Layer_1" data-name="Layer 1" xmlns="http://www.w3.org/2000/svg" viewBox="0 0 124.2 132.2"><title>Artboard 1</title><g id="Layer_3" data-name="Layer 3"><path d="M14.2,133.1a11.33,11.33,0,0,1-.1-2.6,2.46,2.46,0,0,0-1-2c-.2-.1-.2-.2-.2-.4-.3-3.9-.7-7.7-1.1-11.6-.3-2.9-.7-5.8-1-8.6-.2-2-.6-4-.7-6.1-.1-1.4,0-2.8,0-4.2V63.7c0-.4.1-.5.5-.5a5.42,5.42,0,0,1,2.5.6c.1-.2-.2-.3-.1-.5a2.7,2.7,0,0,1,.7.8c.3.5.3.4.7.1a14.4,14.4,0,0,1,3.9-2c.2-.1.5-.2.6-.4a2,2,0,0,1,.8-.4c1.2-.4,2.6-.5,3.8-.8a12.66,12.66,0,0,1,3.9-.5,6,6,0,0,0-.8-.8c-.9-.9-1.5-1.9-2.4-2.8a3,3,0,0,1-1-2,14.82,14.82,0,0,1-.2-4.2,2.28,2.28,0,0,1,.3-1.1,1.55,1.55,0,0,1,1.7-.9,5.15,5.15,0,0,1,2,.9l.1.1c.2.1.5.3.7.2s0-.4-.1-.6a25.9,25.9,0,0,1-.7-5.5,12.22,12.22,0,0,1,3.5-8.9,10.07,10.07,0,0,1,3.7-2.3,17,17,0,0,1,7-1.2,20,20,0,0,1,5.9,1.2,10.67,10.67,0,0,1,3.6,2.7,12.8,12.8,0,0,1,3.2,6.6,4.87,4.87,0,0,1,.1,1.2,29.6,29.6,0,0,0,.7,5.2,3.32,3.32,0,0,1-.3,2.2,1.58,1.58,0,0,0-.1,1.5c.7,1.6.4,3.3.1,5-.4,2.4-1,4.7-1.4,7.1,0,.2-.2.4-.1.6.2.4.6.4.9,0a1.24,1.24,0,0,1,.8-.6,1.24,1.24,0,0,0,.8-.6,1.05,1.05,0,0,1,.9-.5,23.48,23.48,0,0,0,3.7-.5.94.94,0,0,1,1.3.5.55.55,0,0,0,.5.3h.9a1,1,0,0,1,.9.4c.1.1.2.3.2.1,0-.6.5-.8.8-1.2a25.38,25.38,0,0,0,2.3-3.4c.7-1.2,1.4-2.4,2.2-3.5a1.78,1.78,0,0,0,.4-1,6.34,6.34,0,0,1,.8-2.9,8.21,8.21,0,0,0,1.1-3.1,1.22,1.22,0,0,1,.8-.9q2.85-1.2,5.7-2.1A10.53,10.53,0,0,0,81,44.1c.5-.3.9-.6.8-1.3,0-.5.4-1,.1-1.6a2.41,2.41,0,0,0-.6-.8c-.8-.6-1.5-1.3-2.3-1.9a6.85,6.85,0,0,1-1.9-3.3,40.5,40.5,0,0,1-1.2-5c0-.3-.2-.4-.4-.5a7.62,7.62,0,0,1-2.9-3,3,3,0,0,1-.3-1.6,19,19,0,0,0-.3-2.5,5.44,5.44,0,0,1,0-1.8.92.92,0,0,1,1.3-.8,3.55,3.55,0,0,1,.9.4c.2.1.3.1.3-.2s-.1-.5-.1-.8a20.51,20.51,0,0,1,.3-7.8,7,7,0,0,1,.8-2c0-.6.5-1,.8-1.4A10.38,10.38,0,0,1,80,5.3a20.68,20.68,0,0,1,2.5-1.5,11.36,11.36,0,0,1,7.9-.6,19.55,19.55,0,0,1,7.8,4.1,7.84,7.84,0,0,1,2.5,4.3,24.18,24.18,0,0,1,.6,4.7,13.55,13.55,0,0,1-.1,3.5c0,.1-.1.3.1.4a6,6,0,0,1,1.1-.6,1,1,0,0,1,1.3.9,5.29,5.29,0,0,1-.2,2.8,14.92,14.92,0,0,0-.2,2.1,3.86,3.86,0,0,1-.8,2,7.64,7.64,0,0,1-2.5,2.2.4.4,0,0,0-.2.4c-.1.5-.2,1.1-.3,1.6a25.42,25.42,0,0,1-1.4,4.7,9.2,9.2,0,0,1-1.9,2.5c-.1.1-.3.2-.4.3a1,1,0,0,0-.2,1.5,4.71,4.71,0,0,1,.6,1.5,1.92,1.92,0,0,0,1.2,1.4,51.58,51.58,0,0,1,4.7,2.4,17.25,17.25,0,0,0,3.7,1.6c.8.2,1.5.6,2.2.8.2.1.2.3.3.4a16.57,16.57,0,0,1,1.1,3.8c.2,1.2.4,2.4.6,3.7s.6,2.6.8,4c.2,2,.5,3.9.7,5.9.3,2.4.6,4.7.8,7.1.1,1.2.3,2.4.3,3.6,0,.4-.1.7-.4.8l-.2.2a43.31,43.31,0,0,1-7.3,9.7c-.6.6-1.1,1.3-1.7,2a.37.37,0,0,0-.1.3c0,.2,0,.3-.3.2s-.2.2-.1.3c.1.8.1,1.5.2,2.3.1,1.3.2,2.5.2,3.7,0,.3,0,.5-.2.6s-.3.5-.3.9c.1,2.4.2,4.7.1,7.1-.1,1.7-.2,3.5-.2,5.2.1,2,.1,4.1.3,6.1.1,1.5.2,2.9.2,4.4,0,2.3.1,4.6.1,6.9a46.85,46.85,0,0,1,0,5.3C73.4,133.1,43.8,133.1,14.2,133.1ZM94.3,21.5h0c-1.3-.2-2.5.1-2.9,1.2-.1.4-.1.7.2.9a3.69,3.69,0,0,0,2.7.5,6.52,6.52,0,0,0,2.2-.8c.5-.2.6-.5.2-.9A3.41,3.41,0,0,0,94.3,21.5ZM73.5,73.8V70.7c0-.2.1-.4-.1-.5s-.3.2-.4.4-.1.1-.1.2a15.53,15.53,0,0,1-2.4,2.8,31.68,31.68,0,0,1-4.1,2.1c-.3.1-.3.2-.3.4.1.7.1,1.4.2,2.2.1,1.3.1,2.5.2,3.8a38.46,38.46,0,0,1-.1,4.8c0,.9-.2,1.9-.2,2.8s-.4,1.9.2,2.9v.1a5.85,5.85,0,0,0,1.4,2.4c.3.2.3.5.2.9a4.33,4.33,0,0,1-.1.5q-.15.75.6.6c1-.2,2-.4,3-.5.5,0,.6-.3.6-.7a38.44,38.44,0,0,1,0-4.8c.1-3,.3-6,.4-9,.1-1.5.3-3,.4-4.5A10.08,10.08,0,0,0,73.5,73.8ZM41.6,79.7c-.1.1-.1.2-.2.3-.2.7-.4,1.5-.6,2.2s-.3.7-.9.5c-.3-.1-.5-.1-.8-.2s-.6-.3-.7-.1.1.5.2.7a95.58,95.58,0,0,1,5,15.7c.2.7.2.7.9.7a1.27,1.27,0,0,1,.6.1c.5.1.6,0,.5-.5a19.42,19.42,0,0,1-.2-2.4c-.2-1.6-.3-3.2-.5-4.9-.2-1.9-.4-3.8-.6-5.8L44,83a.73.73,0,0,0-.2-.6,2.9,2.9,0,0,1-1.1-1.1A9.06,9.06,0,0,1,41.6,79.7Zm5.8,0h0V81a.75.75,0,0,1-.1.5c-.4.2-.3.5-.2.8.1.5.2.9.3,1.4a81.33,81.33,0,0,1,2.1,9.8c.3,2.1.5,4.3.7,6.4,0,.3.2.5.5.7a1.27,1.27,0,0,0,1.8,0l.1-.1c.4-.1.5-.4.5-.8a47.25,47.25,0,0,0-.4-5.3c-.5-3.9-1.3-7.8-2.2-11.7-.3-1.2-.7-2.4-1.1-3.6-.1-.3,0-.8-.3-1.1v.5c0,.7-.1,1.4-.1,2.1,0,.3-.1.6-.5.5a1,1,0,0,1-.8-.7C47.5,80,47.5,79.9,47.4,79.7ZM33.3,69.8c0,.4-.1.4.1.8.6,1.2.8,2.6,1.7,3.8a10.14,10.14,0,0,1,1,2.4c.4,1.3,1,2.5,1.5,3.8.1.2.2.4.5.4a3.59,3.59,0,0,1,1.1.2c.3.1.5,0,.5-.3a3.55,3.55,0,0,1,.2-1,16.67,16.67,0,0,1,.8-2c.4-.9.7-1.8,1.1-2.7.2-.4.3-.5.8-.3.2.1.3.2.4.2s.2.4.4.3-.1-.3-.2-.5-.3-.6-.6-.6a7.75,7.75,0,0,1-3-.7A13.25,13.25,0,0,1,33.3,69.8Zm12.3,4.6c.4-.2.6.1.7.4a19.78,19.78,0,0,1,1.2,3.1c.2.6.4,1.3.6,1.9a20,20,0,0,1,.5-2.6.44.44,0,0,0-.1-.5c-.4-1-.7-2-1-3a4.05,4.05,0,0,0-.5-.9c-.1-.2-.2-.1-.3,0A5.72,5.72,0,0,1,45.6,74.4ZM80.9,21.5a3.26,3.26,0,0,0-2.3,1,.53.53,0,0,0,.2.9,15.87,15.87,0,0,0,2,.7,3.9,3.9,0,0,0,2.8-.4.69.69,0,0,0,.3-1,1.8,1.8,0,0,0-1.2-1.2.59.59,0,0,0-.7.1c.8.6,1,1.3.6,1.9a1.51,1.51,0,0,1-1.9.2C80.1,23,80.1,22.4,80.9,21.5ZM42.5,52.9a1.57,1.57,0,0,0-1.3-.4.22.22,0,0,0-.2.2,4.4,4.4,0,0,1-.2,1,2.54,2.54,0,0,1,.7-.2C41.8,53.4,42.1,53,42.5,52.9Z"/><path d="M94.3,21.5c.1.1.2.1.3.2a1,1,0,0,1,.6,1.1c-.2.7-.5,1-1.1,1.1a1.45,1.45,0,0,1-1.4-.6c-.4-.7.3-1.7,1.2-1.7.1-.1.2-.1.4-.1Z"/><path d="M44,54.2c-.4-.8-.9-1.6-1.3-2.3A1,1,0,0,0,41,52c-.7-.4-1.8.1-1.5,1,.4,1.1.9,2.2,1.3,3.3s2.4.7,1.9-.5c0-.1-.1-.2-.1-.3C43.4,56,44.6,55.1,44,54.2Z"/></g></svg>